<?xml version="1.0" encoding="iso-8859-1"?>
<!-- Generator: Adobe Illustrator 19.0.0, SVG Export Plug-In . SVG Version: 6.00 Build 0)  -->
<svg version="1.1" id="Capa_1" xmlns="http://www.w3.org/2000/svg" xmlns:xlink="http://www.w3.org/1999/xlink" x="0px" y="0px"
	 viewBox="0 0 512 512" style="enable-background:new 0 0 512 512;" xml:space="preserve">
<g>
	<g>
		<path d="M303.456,265.234c-4.25-4.25-19.425-11.543-31.819-0.001l-11.697,11.696c-4.249,4.25-11.996,19.011,0.001,31.82
			c11.997,12.809,27.434,4.386,31.82,0l11.695-11.695C312.227,288.281,312.227,274.007,303.456,265.234z M292.849,286.447
			l-11.694,11.695c-2.925,2.924-7.683,2.925-10.607,0.001c-1.417-1.417-4.205-5.644-0.001-10.607l11.697-11.696
			c1.416-1.417,6.48-4.28,10.605,0C295.719,278.818,295.773,283.523,292.849,286.447z"/>
	</g>
</g>
<g>
	<g>
		<path d="M449.464,106.052h-71.388l-7.326-17.086c-3.974-9.267-13.057-15.255-23.14-15.255h-63.657
			c-10.083,0-19.166,5.988-23.14,15.255l-7.326,17.086h-24.782l18.892-38.989c4.032-8.321,12.612-13.697,21.858-13.697h92.651
			c9.246,0,17.826,5.376,21.858,13.697l9.876,20.381c1.805,3.726,6.289,5.284,10.02,3.479c3.728-1.806,5.285-6.293,3.479-10.02
			l-9.876-20.381c-6.521-13.46-20.4-22.156-35.357-22.156h-92.651c-14.956,0-28.835,8.697-35.356,22.156l-22.062,45.53h-31.966
			c0,0-1.522-35.629-31.76-35.629H111.27c-31.27,0-31.76,35.629-31.76,35.629H62.536C28.054,106.052,0,134.106,0,168.589v242.508
			c0,34.483,28.054,62.537,62.536,62.537h386.928c34.482,0,62.536-28.054,62.536-62.537V168.589
			C512,134.106,483.946,106.052,449.464,106.052z M274.601,94.877c1.605-3.746,5.277-6.167,9.353-6.167h63.657
			c4.075,0,7.747,2.421,9.353,6.167l4.792,11.175h-91.947L274.601,94.877z M94.51,102.183c0-9.241,7.518-16.76,16.76-16.76h37.042
			c9.241,0,16.76,7.519,16.76,16.76v3.869H94.51V102.183z M62.536,121.052h57.027v35.591
			c-10.314,19.127-30.007,30.939-51.811,30.939c-21.522,0-40.987-11.51-51.405-30.203C21.401,136.561,40.186,121.052,62.536,121.052
			z M497,411.097c0,26.212-21.324,47.537-47.536,47.537H62.536C36.324,458.634,15,437.309,15,411.097V180.462
			c13.654,13.98,32.475,22.12,52.753,22.12c19.817,0,38.239-7.779,51.811-21.181v251.38c0,4.142,3.357,7.5,7.5,7.5
			s7.5-3.358,7.5-7.5V121.052h314.9c26.212,0,47.536,21.325,47.536,47.537V411.097z"/>
	</g>
</g>
<g>
	<g>
		<path d="M315.782,145.789c-79.432,0-144.055,64.622-144.055,144.054s64.623,144.054,144.055,144.054
			c10.923,0,21.812-1.228,32.363-3.651c4.037-0.927,6.558-4.951,5.631-8.988c-0.927-4.037-4.946-6.558-8.988-5.631
			c-9.452,2.17-19.211,3.271-29.006,3.271c-71.161,0-129.055-57.894-129.055-129.054c0-71.161,57.894-129.054,129.055-129.054
			c71.16,0,129.054,57.893,129.054,129.054c0,24.491-6.888,48.32-19.917,68.91c-12.688,20.049-30.604,36.214-51.813,46.748
			c-3.71,1.843-5.224,6.344-3.381,10.053c1.842,3.71,6.342,5.225,10.053,3.381c23.668-11.755,43.66-29.792,57.816-52.161
			c14.551-22.994,22.242-49.596,22.242-76.931C459.836,210.411,395.214,145.789,315.782,145.789z"/>
	</g>
</g>
<g>
	<g>
		<path d="M315.783,192.902c-53.454,0-96.941,43.487-96.941,96.941c0,53.454,43.487,96.941,96.941,96.941
			c53.452,0,96.94-43.488,96.94-96.941C412.723,236.389,369.236,192.902,315.783,192.902z M359.016,220.28l-29.179,29.178
			c-1.416,1.417-6.217,3.732-10.606,0c-4.39-3.732-1.416-9.189,0.001-10.606l25.608-25.609
			C349.815,215.136,354.557,217.499,359.016,220.28z M305.809,371.156c-5.95-0.726-11.704-2.085-17.193-4.02l34.663-34.664
			c2.925-2.924,7.683-2.925,10.607,0c2.925,2.924,2.925,7.683,0,10.607L305.809,371.156z M327.207,370.971l17.286-17.285
			c8.771-8.773,8.771-23.047-0.001-31.82c-8.772-8.772-23.048-8.771-31.82,0l-38.517,38.517
			c-24.107-14.281-40.314-40.547-40.314-70.54c0-45.183,36.759-81.941,81.941-81.941c4.168,0,8.262,0.317,12.264,0.921
			l-19.421,19.422c-4.25,4.25-12.32,20.269-0.001,31.82c12.319,11.55,27.57,4.249,31.82,0l30.633-30.632
			c16.364,14.991,26.646,36.521,26.646,60.411C397.723,331.147,366.998,365.392,327.207,370.971z"/>
	</g>
</g>
<g>
	<g>
		<path d="M451.407,133.284c-15.088,0-27.362,12.275-27.362,27.362c0,15.087,12.274,27.362,27.362,27.362
			s27.362-12.275,27.362-27.362C478.77,145.559,466.495,133.284,451.407,133.284z M451.407,173.008
			c-6.816,0-12.362-5.546-12.362-12.362s5.546-12.362,12.362-12.362c6.816,0,12.362,5.546,12.362,12.362
			C463.77,167.462,458.224,173.008,451.407,173.008z"/>
	</g>
</g>
<g>
</g>
<g>
</g>
<g>
</g>
<g>
</g>
<g>
</g>
<g>
</g>
<g>
</g>
<g>
</g>
<g>
</g>
<g>
</g>
<g>
</g>
<g>
</g>
<g>
</g>
<g>
</g>
<g>
</g>
</svg>
