<!-- Generator: Adobe Illustrator 24.0.3, SVG Export Plug-In  -->
<svg version="1.1" xmlns="http://www.w3.org/2000/svg" xmlns:xlink="http://www.w3.org/1999/xlink" x="0px" y="0px" width="139.4px"
	 height="97.3px" viewBox="0 0 139.4 97.3" style="enable-background:new 0 0 139.4 97.3;" xml:space="preserve">
<defs>
</defs>
<g id="Semibold-M_1_" transform="matrix(1 0 0 1 1964.82 1126)">
	<path d="M-1939.5-1030.3c1.8-2,1.5-4.7-0.5-6.9c-9.9-10.5-15.5-24.6-15.5-40.2s5.5-29.7,15.5-40.2c2-2.1,2.2-4.9,0.5-6.8
		c-1.9-2-5-2.2-7.2,0.1c-11.7,12.4-18.2,29-18.2,47s6.5,34.6,18.2,47C-1944.5-1028.1-1941.3-1028.3-1939.5-1030.3z M-1850.8-1030.3
		c1.8,2,5,2.2,7.2-0.1c11.7-12.4,18.2-29,18.2-47s-6.5-34.6-18.2-47c-2.1-2.3-5.4-2.1-7.2-0.1c-1.8,2-1.5,4.8,0.5,6.8
		c10,10.5,15.4,24.7,15.4,40.2s-5.6,29.6-15.4,40.2C-1852.2-1035-1852.5-1032.3-1850.8-1030.3z M-1865.3-1044.1
		c1.8,2.2,5,2.4,7.5-0.2c8-8.5,12.3-20.4,12.3-33.1s-4.5-24.8-12.3-33.1c-2.4-2.6-5.7-2.4-7.5-0.2c-1.8,2.1-1.2,4.6,0.7,6.8
		c6.2,6.8,9.6,16.2,9.6,26.5s-3.4,19.6-9.6,26.5C-1866.5-1048.7-1867-1046.1-1865.3-1044.1z M-1925-1044.1c1.8-2.1,1.2-4.6-0.7-6.8
		c-6.2-6.8-9.7-16.2-9.7-26.5s3.5-19.6,9.7-26.5c2-2.2,2.5-4.8,0.7-6.8c-1.8-2.2-5.1-2.4-7.5,0.2c-7.8,8.3-12.3,20.4-12.3,33.1
		s4.2,24.6,12.3,33.1C-1930-1041.7-1926.8-1041.9-1925-1044.1z M-1879.5-1058.1c1.8,2.2,5.3,2.3,7.5-0.3c4.2-4.8,6.4-11.7,6.4-18.9
		c0-7.3-2.3-14.1-6.4-19c-2.2-2.6-5.7-2.5-7.5-0.3c-1.7,2.1-1,4.5,0.6,6.8c2.4,3.3,4,7.9,4,12.5c0,4.6-1.5,9.3-4,12.5
		C-1880.5-1062.6-1881.1-1060.2-1879.5-1058.1z M-1910.8-1058.1c1.7-2.1,1.1-4.5-0.6-6.8c-2.4-3.2-4-7.9-4-12.5
		c0-4.6,1.5-9.3,4-12.5c1.7-2.2,2.2-4.7,0.6-6.8c-1.8-2.2-5.2-2.3-7.5,0.3c-4.2,4.9-6.4,11.7-6.4,19c0,7.3,2.3,14.1,6.4,18.9
		C-1916-1055.8-1912.6-1055.9-1910.8-1058.1z M-1895.1-1070c4,0,7.4-3.4,7.4-7.5c0-4.1-3.4-7.4-7.4-7.4c-4.1,0-7.5,3.4-7.5,7.5
		C-1902.6-1073.3-1899.1-1070-1895.1-1070z"/>
</g>
</svg>
