<svg version="1.1" xmlns="http://www.w3.org/2000/svg" xmlns:xlink="http://www.w3.org/1999/xlink" x="0px" y="0px" width="114.1px"
	 height="93.7px" viewBox="0 0 114.1 93.7" style="enable-background:new 0 0 114.1 93.7;" xml:space="preserve">
<defs>
</defs>
<g id="Semibold-M_1_" transform="matrix(1 0 0 1 1973.78 1126)">
	<path d="M-1876.4-1116.9h-44.7c-3.7,0-5.9-0.8-8.7-3.1l-2.6-2.1c-3.6-2.9-6.2-3.8-11.5-3.8h-14.4c-9.6,0-15.4,5.7-15.4,16.4v14.5
		h114.1v-5.2C-1859.7-1111.1-1865.5-1116.9-1876.4-1116.9z M-1957.1-1032.3h81.7c9.9,0,15.7-5.8,15.7-16.6v-38.8h-114.1v38.8
		C-1973.8-1038.1-1968-1032.3-1957.1-1032.3z"/>
</g>
</svg>
