<svg _ngcontent-oyn-c1="" viewBox="0 0 129.44 49.61" xmlns="http://www.w3.org/2000/svg"><defs _ngcontent-oyn-c1=""></defs><g _ngcontent-oyn-c1="" data-name="Layer 2" id="Layer_2"><g _ngcontent-oyn-c1="" data-name="Layer 1" id="Layer_1-2"><path _ngcontent-oyn-c1="" class="cls-1" d="M49.61,0H0V49.61H49.61V0ZM45.79,45.79H34.34V34.34H45.79Zm0-15.26H30.53V45.79H19.08V19.08H45.79Zm0-15.27H15.26V45.79H3.82v-42h42Z"></path><path _ngcontent-oyn-c1="" class="cls-1" d="M68.16,3.84c.32,0,.46.1.46.43V5.49c0,.33-.14.46-.46.46h-2v8c0,.33-.11.47-.44.47H64c-.33,0-.45-.14-.45-.47V6h-2c-.33,0-.47-.13-.47-.46V4.27c0-.33.14-.43.47-.43Z"></path><path _ngcontent-oyn-c1="" class="cls-1" d="M75.78,8h2.83V4.3c0-.32.13-.46.45-.46h1.69c.33,0,.44.14.44.46V14c0,.33-.11.47-.44.47H79.06c-.32,0-.45-.14-.45-.47V10.13H75.78V14c0,.33-.11.47-.43.47H73.66c-.33,0-.46-.14-.46-.47V4.3c0-.32.13-.46.46-.46h1.69c.32,0,.43.14.43.46Z"></path><path _ngcontent-oyn-c1="" class="cls-1" d="M87,14.46c-.33,0-.46-.14-.46-.47V4.3c0-.32.13-.46.46-.46h5.34c.33,0,.47.1.47.43V5.49c0,.33-.14.46-.47.46H89.16V8h3c.33,0,.47.11.47.43V9.55c0,.33-.14.46-.47.46h-3v2.34h3.38c.33,0,.47.11.47.44V14c0,.33-.14.45-.47.45Z"></path><path _ngcontent-oyn-c1="" class="cls-1" d="M68.55,19.9v1.22c0,.33-.14.46-.47.46H64.5v2h3.33c.33,0,.47.11.47.43v1.22c0,.33-.14.46-.47.46H64.5v3.9c0,.33-.11.47-.44.47H62.37c-.33,0-.45-.14-.45-.47V19.93c0-.32.12-.47.45-.47h5.71C68.41,19.46,68.55,19.58,68.55,19.9Z"></path><path _ngcontent-oyn-c1="" class="cls-1" d="M77.53,19.93l2.83,9.69c.1.3,0,.47-.34.47H78.28c-.33,0-.47-.17-.54-.47l-.41-1.5H74.74l-.41,1.5c-.08.3-.22.47-.55.47H72.2c-.32,0-.43-.17-.34-.47l2.83-9.69a.55.55,0,0,1,.58-.47H77A.54.54,0,0,1,77.53,19.93Zm-1,5.32A29.65,29.65,0,0,1,76.07,22c0,.22-.29,2.36-.54,3.27l-.23.84h1.47Z"></path><path _ngcontent-oyn-c1="" class="cls-1" d="M92.36,27.55c0,1.34-.9,2.67-3.84,2.67s-3.84-1.33-3.84-2.67V22c0-1.34.9-2.67,3.84-2.67s3.84,1.33,3.84,2.67v.72c0,.33-.11.47-.43.47H90.32c-.33,0-.46-.14-.46-.47v-.27c0-.71-.54-1-1.31-1s-1.3.3-1.3,1v4.63c0,.72.54,1,1.3,1s1.31-.3,1.31-1v-.5c0-.33.13-.47.46-.47h1.61c.32,0,.43.14.43.47Z"></path><path _ngcontent-oyn-c1="" class="cls-1" d="M103.6,19.46c.33,0,.47.12.47.44v1.22c0,.33-.14.46-.47.46h-2v8c0,.33-.11.47-.43.47H99.48c-.33,0-.46-.14-.46-.47v-8H97c-.32,0-.47-.13-.47-.46V19.9c0-.32.15-.44.47-.44Z"></path><path _ngcontent-oyn-c1="" class="cls-1" d="M108.42,22c0-1.34,1-2.67,4-2.67s4,1.33,4,2.67v5.54c0,1.34-1.06,2.67-4,2.67s-4-1.33-4-2.67Zm5.41.45c0-.71-.66-1-1.43-1s-1.4.3-1.4,1v4.63c0,.72.64,1,1.4,1s1.43-.3,1.43-1Z"></path><path _ngcontent-oyn-c1="" class="cls-1" d="M127.81,25.78l1.54,3.84c.1.29-.1.47-.44.47h-1.69c-.3,0-.36-.25-.45-.47l-1.38-3.45h-1.17v3.45c0,.33-.11.47-.44.47h-1.69c-.32,0-.45-.14-.45-.47V19.93c0-.32.13-.47.45-.47h3.38c2.94,0,4,1.33,4,2.68V23.5A2.41,2.41,0,0,1,127.81,25.78Zm-3.59-4.2v2.48h1.25c.77,0,1.42-.3,1.42-1v-.45c0-.72-.65-1-1.42-1Z"></path><path _ngcontent-oyn-c1="" class="cls-1" d="M62.37,45.72c-.33,0-.45-.14-.45-.47V35.56c0-.32.12-.46.45-.46h5.35c.33,0,.47.11.47.43v1.22c0,.33-.14.46-.47.46H64.5v2h3c.33,0,.47.11.47.43v1.14c0,.33-.14.46-.47.46h-3v2.34h3.38c.32,0,.46.11.46.44v1.22c0,.33-.14.45-.46.45Z"></path></g></g></svg>
