<svg version="1.1" xmlns="http://www.w3.org/2000/svg" xmlns:xlink="http://www.w3.org/1999/xlink" x="0px" y="0px" width="56.8px"
	 height="93.1px" viewBox="0 0 56.8 93.1" style="enable-background:new 0 0 56.8 93.1;" xml:space="preserve">
<defs>
</defs>
<g id="Semibold-M_1_" transform="matrix(1 0 0 1 2002.4 1126)">
	<path d="M-1976.6-1060.5c3.9,0,6.2-2.2,6.6-5.8c0-0.4,0.1-0.9,0.1-1.4c0.4-5.5,2.6-7.9,10.7-13.1c8.7-5.6,13.6-12,13.6-21.3
		c0-14.9-12.2-23.9-28.7-23.9c-12.3,0-22.3,5.3-26.5,14.1c-1.1,2.3-1.7,4.6-1.7,6.8c0,3.9,2.5,6.6,6.7,6.6c3.2,0,5.7-1.8,6.9-4.7
		c2.3-7.5,7.3-10.4,13.9-10.4c7.9,0,14.1,4.6,14.1,11.7c0,6.3-3.6,9.7-10.7,14.4c-7.2,4.7-12.2,10-12.2,17.8v2.2
		C-1983.7-1063.4-1981-1060.5-1976.6-1060.5z M-1976.5-1032.9c5,0,9-3.9,9-8.7s-4-8.7-9-8.7c-5,0-9,3.9-9,8.7
		S-1981.5-1032.9-1976.5-1032.9z"/>
</g>
</svg>
