<svg height="512pt" viewBox="-30 0 512 512.001" width="512pt" xmlns="http://www.w3.org/2000/svg"><path d="m78.640625 238.078125h179.664063c13.585937 0 24.636718-11.050781 24.636718-24.636719 0-13.585937-11.050781-24.636718-24.636718-24.636718h-179.664063c-13.585937 0-24.636719 11.050781-24.636719 24.636718 0 13.585938 11.050782 24.636719 24.636719 24.636719zm0-34.269531h179.664063c5.3125 0 9.636718 4.320312 9.636718 9.632812 0 5.316406-4.324218 9.636719-9.636718 9.636719h-179.664063c-5.316406 0-9.636719-4.320313-9.636719-9.636719 0-5.3125 4.320313-9.632812 9.636719-9.632812zm0 0"/><path d="m78.640625 306.617188h179.664063c13.585937 0 24.636718-11.050782 24.636718-24.636719 0-13.585938-11.050781-24.636719-24.636718-24.636719h-179.664063c-13.585937 0-24.636719 11.050781-24.636719 24.636719 0 13.585937 11.050782 24.636719 24.636719 24.636719zm0-34.273438h179.664063c5.3125 0 9.636718 4.324219 9.636718 9.636719s-4.324218 9.636719-9.636718 9.636719h-179.664063c-5.316406 0-9.636719-4.324219-9.636719-9.636719s4.320313-9.636719 9.636719-9.636719zm0 0"/><path d="m78.640625 375.152344h179.664063c13.585937 0 24.636718-11.050782 24.636718-24.632813 0-13.585937-11.050781-24.636719-24.636718-24.636719h-179.664063c-13.585937 0-24.636719 11.050782-24.636719 24.636719 0 13.582031 11.050782 24.632813 24.636719 24.632813zm0-34.269532h179.664063c5.3125 0 9.636718 4.320313 9.636718 9.636719 0 5.3125-4.324218 9.632813-9.636718 9.632813h-179.664063c-5.316406 0-9.636719-4.320313-9.636719-9.632813 0-5.316406 4.320313-9.636719 9.636719-9.636719zm0 0"/><path d="m444.546875 281.367188-11.300781-11.296876c-9.9375-9.941406-26.117188-9.941406-36.058594 0l-5.597656 5.597657c-3.980469-1.90625-8.332032-1.25-8.535156-1.246094v-129.949219c0-30.1875-24.5625-54.75-54.753907-54.75h-22.015625v-32.347656c0-30.917969-24.714844-57.375-55.113281-57.375-47.546875 0-57.828125 41.140625-57.828125 56.457031v33.265625h-15.09375v-32.347656c0-30.917969-24.714844-57.375-55.113281-57.375-47.238281 0-57.828125 41.140625-57.828125 56.457031v33.265625h-10.554688c-30.191406 0-54.753906 24.5625-54.753906 54.75v15.3125c0 4.144532 3.359375 7.5 7.5 7.5 4.144531 0 7.5-3.355468 7.5-7.5v-15.3125c0-21.917968 17.835938-39.75 39.753906-39.75h10.554688v27.832032c0 14.238281 11.582031 25.820312 25.816406 25.820312 14.238281 0 25.820312-11.582031 25.820312-25.820312v-27.832032h76.398438v27.832032c0 14.238281 11.582031 25.820312 25.820312 25.820312 14.234376 0 25.816407-11.582031 25.816407-25.820312v-27.832032h37.207031c21.921875 0 39.753906 17.832032 39.753906 39.75v200.84375l-48.425781 48.429688c-4.960937 4.960937-8.320313 11.214844-9.71875 18.089844l-3.605469 17.773437c-1.410156 6.9375.734375 14.066406 5.742188 19.074219 3.992187 3.992187 9.339844 6.167968 14.863281 6.167968 6.351563 0 21.980469-4.03125 21.980469-4.03125 15.179687-2.804687 19.164062-10.785156 19.164062-10.785156v17.214844c0 21.917969-17.835937 39.75-39.753906 39.75h-227.433594c-21.917968 0-39.753906-17.832031-39.753906-39.75v-264.976562c0-4.144532-3.355469-7.5-7.5-7.5-4.140625 0-7.5 3.355468-7.5 7.5v264.976562c0 30.1875 24.5625 54.75 54.753906 54.75h273.550782c30.1875 0 54.75-24.5625 54.75-54.75v-12.980469c0-4.140625-3.355469-7.5-7.5-7.5-4.140626 0-7.5 3.359375-7.5 7.5v12.980469c0 21.917969-17.832032 39.75-39.75 39.75h-8.523438c10.554688-9.988281 17.160156-24.109375 17.160156-39.75v-32.214844l17.503906-17.503906c.65625.828125 7.726563 10.578125 21.921876 10.578125 7.175781 0 14.351562-2.734375 19.816406-8.195313l38.066406-38.0625c8.496094-8.5 10.511719-21.3125 5.472656-31.863281 1.902344-5.632812 1.777344-11.800781-.371094-17.363281l5.191407-5.195312c9.945312-9.941407 9.945312-26.121094.003906-36.0625zm-353.421875-137.992188c-5.964844 0-10.816406-4.855469-10.816406-10.820312v-76.097657c0-11.242187 4.445312-21.777343 12.515625-29.65625 6.898437-6.738281 15.683593-10.777343 25.121093-11.636719-15.925781 16.136719-16.03125 39.09375-16 41.308594v76.082032c0 5.964843-4.855468 10.820312-10.820312 10.820312zm25.820312-86.917969c0-1.851562 1.363282-4.8125 5.320313-4.8125 2.445313 0 4.347656 2.503907 4.347656 5.171875v32.902344h-9.667969zm24.667969 33.265625v-32.90625c0-18.816406-19.238281-20.1875-19.882812-20.183594-.074219 0-.144531-.003906-.21875-.003906-.054688.003906-.109375 0-.164063 0 3.097656-6.792968 8.386719-13.730468 17.363282-17.90625 14.414062 6.683594 24.539062 21.597656 24.539062 38.652344v32.347656zm281.027344 190.953125 11.296875 11.300781c4.09375 4.09375 4.09375 10.75 0 14.84375l-3.65625 3.660157-26.144531-26.144531 3.660156-3.65625c4.089844-4.097657 10.75-4.097657 14.84375-.003907zm-31.585937 11.792969 31.964843 31.960938c4.074219 4.074218 4.074219 10.707031 0 14.78125-4.074219 4.074218-10.707031 4.074218-14.78125 0l-31.960937-31.964844c-1.976563-1.972656-5.402344-8.769532 0-14.777344s12.804687-1.976562 14.777344 0zm-73.09375 130.332031-26.144532-26.144531 76.328125-76.328125 26.140625 26.144531zm-98.796876-279.425781c-5.96875 0-10.820312-4.855469-10.820312-10.820312v-76.097657c0-11.242187 4.445312-21.777343 12.515625-29.65625 6.898437-6.738281 15.683594-10.777343 25.121094-11.636719-15.925781 16.136719-16.027344 39.09375-16 41.308594v76.082032c0 5.964843-4.851563 10.820312-10.816407 10.820312zm25.816407-86.917969c0-1.851562 1.503906-4.8125 5.320312-4.8125 2.449219 0 4.347657 2.503907 4.347657 5.171875v32.902344h-9.667969zm24.667969 33.265625v-32.90625c0-19.742187-19.535157-20.191406-20.328126-20.171875 3.089844-6.789062 8.386719-13.730469 17.421876-17.925781 14.417968 6.6875 24.542968 21.601562 24.542968 38.65625v32.34375h-21.636718zm50.132812 15h8.523438c21.917968 0 39.75 17.832032 39.75 39.75v135.289063c-12.953126 9.101562-9.402344 25.496093-8.578126 28.023437l-22.535156 22.53125v-185.84375c0-15.644531-6.605468-29.765625-17.160156-39.75zm-19.988281 331.394532-17.769531 3.609374c-2.875.582032-4.792969-.960937-5.480469-1.652343-.691407-.691407-2.234375-2.609375-1.648438-5.480469l3.605469-17.773438c.53125-2.613281 1.558594-5.0625 3.011719-7.257812l25.542969 25.542969c-2.195313 1.453125-4.648438 2.480469-7.261719 3.011719zm85.785156-36.8125c-5.078125 5.078124-15.953125 6.210937-20.382813-2.523438l41.234376-41.238281c9.5 3.507812 17.167968.785156 20.796874-1.070313-.480468 2.492188-1.679687 4.863282-3.585937 6.769532zm0 0"/></svg>